<svg width="263" height="263" viewBox="0 0 263 263" fill="none" xmlns="http://www.w3.org/2000/svg">
<g clip-path="url(#clip0_41_16)">
<rect width="263" height="263" rx="30" fill="#0B0A0A"/>
<path d="M175.354 92.81C167.104 98.75 159.624 107.22 151.704 115.91C170.074 109.86 198.894 95.89 200.544 87.2C201.974 79.17 185.914 75.98 180.084 75.65C155.664 74.11 119.694 93.25 119.144 104.25C118.924 106.56 119.694 108.98 122.884 109.64C122.884 109.75 121.784 110.19 120.464 110.19C115.184 110.19 111.884 106.89 112.544 101.5C113.974 89.51 138.504 71.8 172.164 71.8C174.144 71.8 176.124 71.91 178.214 72.02C189.984 72.79 205.604 78.29 204.834 91.16C203.954 106.45 177.224 114.37 169.414 116.13C169.964 116.02 171.504 116.13 173.154 116.24C182.614 117.01 198.674 121.19 198.234 132.85C197.354 162 118.924 186.2 85.1539 186.2C82.9539 186.2 80.8639 186.09 78.9939 185.87C70.0839 184.77 63.3739 181.36 63.9239 173.11C64.8039 157.71 101.434 140.33 109.574 139.23C109.684 139.34 109.574 139.34 108.804 139.67C97.1439 145.06 68.4339 161.56 67.6639 173.33C67.4439 177.4 75.5839 178.06 78.5539 178.28C79.8739 178.39 81.3039 178.39 82.7339 178.39C119.254 178.39 190.094 148.25 191.744 129.11C192.294 121.74 179.314 119.32 171.284 118.77C169.854 118.66 168.534 118.66 167.104 118.66C160.504 118.66 153.904 119.65 146.864 121.3C140.594 128.45 124.644 146.05 124.644 149.9C124.644 150.23 125.084 150.45 125.524 150.45C127.174 150.56 131.574 149.02 132.784 148.47C130.694 150.45 125.524 153.86 123.214 153.86C121.344 153.86 119.694 152.98 119.804 150.12C120.024 140.99 148.624 101.06 167.654 87.42C169.634 86.1 171.284 85.55 172.164 85.66C178.434 86.21 182.284 92.92 180.414 91.49C179.204 90.83 177.334 91.49 175.354 92.81Z" fill="#DBAB00"/>
</g>
<defs>
<clipPath id="clip0_41_16">
<rect width="263" height="263" fill="white"/>
</clipPath>
</defs>
</svg>
