<svg width="143" height="116" viewBox="0 0 143 116" fill="none" xmlns="http://www.w3.org/2000/svg">
<path d="M112.354 21.81C104.104 27.75 96.6239 36.22 88.7039 44.91C107.074 38.86 135.894 24.89 137.544 16.2C138.974 8.17 122.914 4.97999 117.084 4.65C92.6639 3.11 56.6939 22.25 56.1439 33.25C55.9239 35.56 56.6939 37.98 59.8839 38.64C59.8839 38.75 58.7839 39.19 57.4639 39.19C52.1839 39.19 48.8839 35.89 49.5439 30.5C50.9739 18.51 75.5039 0.799994 109.164 0.799994C111.144 0.799994 113.124 0.909993 115.214 1.02C126.984 1.78999 142.604 7.29 141.834 20.16C140.954 35.45 114.224 43.37 106.414 45.13C106.964 45.02 108.504 45.13 110.154 45.24C119.614 46.01 135.674 50.19 135.234 61.85C134.354 91 55.9239 115.2 22.1539 115.2C19.9539 115.2 17.8639 115.09 15.9939 114.87C7.08391 113.77 0.373906 110.36 0.923906 102.11C1.80391 86.71 38.4339 69.33 46.5739 68.23C46.6839 68.34 46.5739 68.34 45.8039 68.67C34.1439 74.06 5.43391 90.56 4.66391 102.33C4.44391 106.4 12.5839 107.06 15.5539 107.28C16.8739 107.39 18.3039 107.39 19.7339 107.39C56.2539 107.39 127.094 77.25 128.744 58.11C129.294 50.74 116.314 48.32 108.284 47.77C106.854 47.66 105.534 47.66 104.104 47.66C97.5039 47.66 90.9039 48.65 83.8639 50.3C77.5939 57.45 61.6439 75.05 61.6439 78.9C61.6439 79.23 62.0839 79.45 62.5239 79.45C64.1739 79.56 68.5739 78.02 69.7839 77.47C67.6939 79.45 62.5239 82.86 60.2139 82.86C58.3439 82.86 56.6939 81.98 56.8039 79.12C57.0239 69.99 85.6239 30.06 104.654 16.42C106.634 15.1 108.284 14.55 109.164 14.66C115.434 15.21 119.284 21.92 117.414 20.49C116.204 19.83 114.334 20.49 112.354 21.81Z" fill="#DBAB00"/>
</svg>
